# xmcd
#
# Track frame offsets:
# 150
# 8038
# 17395
# 37654
# 51847
#
# Disc length: 869 seconds
#
# Revision: 1
# Processed by: cddbd v1.5.2PL0 Copyright (c) Steve Scherf et al.
# Submitted via: CedeCatalogueitor 2.6.0.6 http://personales.ya.com/cdcatalogueitor
#
DISCID=27036305
DTITLE=Garzón - Otra Fuerza Ep
DYEAR=1900
DGENRE=
TTITLE0=Otra Fuerza
TTITLE1=Uno Menos
TTITLE2=Marcador
TTITLE3=Gran G
TTITLE4=Círculos
EXTD=
EXTT0=
EXTT1=
EXTT2=
EXTT3=
EXTT4=
PLAYORDER=
